# xmcd
#
# Track frame offsets: 
#        150
#        13036
#        24658
#        35369
#        47954
#        59354
#        71064
#        82561
#        92650
#        105527
#        118524
#        131859
#        144006
#        155936
#        170271
#        181457
#        191221
#        203981
#        216666
#        230013
#        241585
#        253388
#        265960
#        280414
#        290533
#        302332
#        313992
#        325477
#        336974
#        348485
#
# Disc length: 4778 seconds
#
# Revision: 0
# Processed by: cddbd v1.5.2PL0 Copyright (c) Steve Scherf et al.
# Submitted via: ExactAudioCopyFreeDBPlugin 1.0
#
DISCID=d112a81e
DTITLE=Various Artist - American Soul Connection (1954-1962)
DYEAR=2019
DGENRE=No, thanks.
TTITLE0=Etta James - Something's got a hold on me
TTITLE1=Solomon Burke - Cry to me
TTITLE2=Gene Chandler - Duke of Earl
TTITLE3=Nancy Wilson - Save your love for me
TTITLE4=Mary Wells - The one who really loves you
TTITLE5=Dee Dee Sharp - Mashed potato time
TTITLE6=Yvonne Fair and James Brown Band - I found you
TTITLE7=Benny Spellman - Fortune teller
TTITLE8=Wilson Pickett - Let me be your boy
TTITLE9=Ben E. King - Don't play that song (You lied)
TTITLE10=Booker T. and the MG's - Green onions
TTITLE11=The Supremes - Your heart belongs to me
TTITLE12=Sam Cooke - Bring it on home to me
TTITLE13=Solomon Burke - I'm hanging up my heart for you
TTITLE14=Little Eva - The loco-motin
TTITLE15=Lamont Dozier - Fortune teller (Tell me)
TTITLE16=Mary Wells - You beat me to the punch
TTITLE17=Marvin Gaye - Stubborn kind of fellow
TTITLE18=James Brown and The Famous Flames - Mashed potatoes U.S.A.
TTITLE19=William Bell - Any other way
TTITLE20=Aretha Franklin - Just for a thrill
TTITLE21=LaBrenda Ben and The Beljeans - Camel walk
TTITLE22=Rufus Thomas - It's aw'rite
TTITLE23=Ike and Tina Turner - Mind in a whirl
TTITLE24=Otis Redding - These arms of mine
TTITLE25=Joe Tex - The peck
TTITLE26=The Impressions - I'm the one who loves you
TTITLE27=Marvin Gaye - Hitch hike
TTITLE28=Solomon Burke - I said I was sorry
TTITLE29=Eddie Holland - True love will go a mighty long way
EXTD=
EXTT0=
EXTT1=
EXTT2=
EXTT3=
EXTT4=
EXTT5=
EXTT6=
EXTT7=
EXTT8=
EXTT9=
EXTT10=
EXTT11=
EXTT12=
EXTT13=
EXTT14=
EXTT15=
EXTT16=
EXTT17=
EXTT18=
EXTT19=
EXTT20=
EXTT21=
EXTT22=
EXTT23=
EXTT24=
EXTT25=
EXTT26=
EXTT27=
EXTT28=
EXTT29=
PLAYORDER=
